<svg xmlns="http://www.w3.org/2000/svg" version="1.1" xmlns:xlink="http://www.w3.org/1999/xlink" xmlns:svgjs="http://svgjs.dev/svgjs" width="100%" height="100%" viewBox="0 0 1000 600"><rect width="1000" height="600" x="0" y="0" fill="#000000"/><g><circle r="166.66666666666666" cx="291.9339243570963" cy="313.58932604390753" fill="#fcedda" transform="matrix(1.0024023230804358,0,0,1.002402323080436,0.001364955280357627,-14.34266385781585)"/><path d="M145.29135348843639 373.95432969432125L145.29135348843639 373.95432969432125L145.53240031279296 381.63339281310937Q145.53240031279296 388.58931545882774 141.57234534122063 388.58931545882774L141.57234534122063 388.58931545882774Q135.61504525355087 388.58931545882774 130.13983881459433 386.9708582095765Q124.69906763626011 385.3524009603251 124.69906763626011 382.5287095892909Q124.69906763626011 379.67058295763434 126.07647806115484 362.93504629516326Q127.41945322542722 346.1995096326923 127.41945322542722 337.762870780212L127.41945322542722 337.762870780212L127.41945322542722 323.36893184006203Q127.41945322542722 259.90474651303714 149.9745489330785 242.5493751593635L149.9745489330785 242.5493751593635Q155.2087085476785 238.58932018779112 160.6494797260127 238.58932018779112L160.6494797260127 238.58932018779112Q163.12881849082322 238.58932018779112 165.60815725563373 244.03009136612536Q168.08749602044423 249.5052978050819 168.08749602044423 258.18298348191877L168.08749602044423 258.18298348191877Q168.08749602044423 279.49840980716476 160.89052655036926 298.09345054324365Q153.69355708029428 316.68849127932265 146.2555407858627 326.6058463385647L146.2555407858627 326.6058463385647Q146.01449396150613 332.80419325059097 146.01449396150613 345.95846280833575L146.01449396150613 345.95846280833575Q147.0131165195548 344.4433113409515 156.44837793008375 329.08518510337524Q165.8492040799903 313.7270588657989 172.42633885886266 306.53008939572396Q179.00347363773503 299.33311992564893 184.20319799171267 299.33311992564893Q189.40292234569029 299.33311992564893 193.5007183597521 302.8110812485081Q197.59851437381394 306.2890425713673 197.59851437381394 311.488766925345L197.59851437381394 311.488766925345Q197.59851437381394 322.40474454263574 195.22248139087054 343.5824298253923Q192.88088366854947 364.7945503687712 192.88088366854947 370.37306258959484Q192.88088366854947 375.9515748104186 194.36159987531133 375.9515748104186L194.36159987531133 375.9515748104186Q198.59713693186262 375.71052798606195 206.0351532262942 365.4143850599738Q213.47316952072578 355.1182421338857 220.77344477266786 339.00254016261727Q228.07372002460994 322.88683819134894 229.69217727386126 322.88683819134894Q231.31063452311258 322.88683819134894 231.31063452311258 324.8840833074463L231.31063452311258 324.8840833074463Q231.31063452311258 331.80557069254235 224.1136650530376 346.92265010576205L224.1136650530376 346.92265010576205Q204.52000175890998 388.58931545882774 191.15912063743107 388.58931545882774L191.15912063743107 388.58931545882774Q181.48281240254556 388.58931545882774 176.5241348729245 384.62926048725535L176.5241348729245 384.62926048725535Q174.76793658118373 382.87306219551465 174.76793658118373 375.5727869435725Q174.76793658118373 368.27251169163037 176.14534700607845 351.77802185351595Q177.52275743097317 335.28353201540153 177.52275743097317 327.0879399872779Q177.52275743097317 318.92678321977655 174.66463079931663 318.92678321977655Q171.80650416766002 318.92678321977655 159.650857167964 335.9033667066042Q147.49521016826796 352.8799501934318 146.77206969519824 357.59758089869626L146.77206969519824 357.59758089869626Q145.29135348843639 366.275266575533 145.29135348843639 373.95432969432125ZM161.4070554597048 263.623754660253L161.4070554597048 263.623754660253Q161.4070554597048 253.22430595229767 158.65223460991533 253.22430595229767L158.65223460991533 253.22430595229767Q154.21008598962982 253.22430595229767 149.9745489330785 280.73807918957004L149.9745489330785 280.73807918957004Q147.77069225324692 295.37306495407654 146.77206969519824 314.6912461632253L146.77206969519824 314.6912461632253Q161.4070554597048 284.21604051242923 161.4070554597048 263.623754660253ZM272.21972414248626 346.92265010576205L272.21972414248626 346.92265010576205Q252.62606084835858 388.58931545882774 239.1274386843902 388.58931545882774Q225.59438125979943 388.58931545882774 223.2527835374784 385.3524009603251Q220.91118581515735 382.1499217224449 220.91118581515735 364.0369746350791Q220.91118581515735 345.95846280833575 224.35471187739418 311.7298137497015L224.35471187739418 311.7298137497015Q211.95801805334156 309.25047498489107 211.2348775802718 301.57141186610284L211.2348775802718 301.57141186610284Q211.2348775802718 297.61135689453056 216.43460193424943 297.61135689453056Q221.63432628822707 297.61135689453056 225.59438125979943 299.5741667500055L225.59438125979943 299.5741667500055Q227.8326732002534 281.73670174761867 230.82854087439944 263.3827078358963L230.82854087439944 263.3827078358963Q231.55168134746918 258.6650771306319 235.51173631904152 254.46397533470295Q239.50622655123627 250.22843827815166 243.22523469845206 250.22843827815166L243.22523469845206 250.22843827815166Q246.4277139363323 250.22843827815166 246.4277139363323 260.4212754223727L246.4277139363323 260.4212754223727Q246.4277139363323 265.1044708670148 242.9497526134731 303.80970380655685L242.9497526134731 303.80970380655685Q249.66462843483492 302.5700344241516 257.72247942046914 298.8510262769357Q265.7803304061033 295.13201812972 267.26104661286513 295.13201812972L267.26104661286513 295.13201812972Q271.73763049377305 295.13201812972 271.73763049377305 297.8524037188871L271.73763049377305 297.8524037188871Q271.9786773181296 300.33174248369767 262.54341590760066 304.67058532211604Q253.1425897576941 309.0094281605344 242.22661214040338 311.24772010098843L242.22661214040338 311.24772010098843Q239.2307444662573 347.4391790150976 239.2307444662573 366.03421975117647L239.2307444662573 366.03421975117647Q239.2307444662573 375.9515748104186 242.22661214040338 375.9515748104186L242.22661214040338 375.9515748104186Q246.66876076068888 375.71052798606195 254.10677705512043 365.51769084184093Q261.54479334955204 355.35928895824225 268.8795038621165 339.1402812051068Q276.17977911405853 322.88683819134894 277.7982363633099 322.88683819134894Q279.4166936125612 322.88683819134894 279.4166936125612 324.8840833074463L279.4166936125612 324.8840833074463Q279.4166936125612 331.80557069254235 272.21972414248626 346.92265010576205ZM287.0957567313493 373.95432969432125L287.0957567313493 373.95432969432125L287.3368035557059 381.63339281310937Q287.3368035557059 388.58931545882774 283.37674858413357 388.58931545882774L283.37674858413357 388.58931545882774Q277.4194484964638 388.58931545882774 271.9786773181296 386.9708582095765Q266.50347087917305 385.3524009603251 266.50347087917305 382.5287095892909Q266.50347087917305 379.67058295763434 267.88088130406777 362.93504629516326Q269.2582917289625 346.1995096326923 269.2582917289625 337.762870780212L269.2582917289625 337.762870780212L269.2582917289625 323.1278850157055Q269.2582917289625 311.24772010098843 271.73763049377305 308.76838133617787Q274.21696925858356 306.2890425713673 280.51862195247696 301.57141186610284Q286.85470990699275 296.85378116083837 289.7128365386493 296.85378116083837Q292.5365279096835 296.85378116083837 293.29410364337565 297.8524037188871Q294.0516793770677 298.8510262769357 294.0516793770677 301.57141186610284L294.0516793770677 301.57141186610284Q294.0516793770677 314.6912461632253 289.0930018474467 326.36479951420813L289.0930018474467 326.36479951420813Q287.8533324650415 340.4832563693791 287.8533324650415 345.95846280833575L287.8533324650415 345.95846280833575Q300.9731667621638 321.4061219845871 306.1728911161414 313.7270588657989L306.1728911161414 313.7270588657989Q315.3671057023138 299.33311992564893 322.80512199674536 299.33311992564893L322.80512199674536 299.33311992564893Q327.5227527020098 299.33311992564893 331.58611345544927 303.0521280728648Q335.68390946951115 306.7711362200805 335.68390946951115 312.2119073984147Q335.68390946951115 317.68711383737127 335.58060368764404 322.50805032450285Q335.4428626451545 327.36342207225675 335.20181582079795 330.08380766142386Q334.9607689964414 332.80419325059097 334.9607689964414 333.56176898428305L334.9607689964414 333.56176898428305Q335.9249562938677 331.5645238681857 343.3629725882993 322.40474454263574Q350.8009888827308 313.21052995646335 353.41806869003085 310.49014436729624Q356.03514849733085 307.76975877812924 358.9965809108545 305.04937318896214L358.9965809108545 305.04937318896214Q364.71283417416765 299.33311992564893 369.2927238369426 299.33311992564893Q373.87261349971766 299.33311992564893 377.97040951377943 302.8110812485081Q382.0682055278413 306.2890425713673 382.0682055278413 311.488766925345L382.0682055278413 311.488766925345Q382.0682055278413 322.40474454263574 379.69217254489786 343.5824298253923Q377.35057482257685 364.7945503687712 377.35057482257685 370.37306258959484Q377.35057482257685 375.9515748104186 378.8312910293387 375.9515748104186L378.8312910293387 375.9515748104186Q383.0323928252676 375.71052798606195 390.4704091196992 365.4143850599738Q397.90842541413076 355.1182421338857 405.24313592669523 339.00254016261727Q412.54341117863737 322.88683819134894 414.16186842788863 322.88683819134894Q415.78032567714 322.88683819134894 415.78032567714 324.8840833074463L415.78032567714 324.8840833074463Q415.78032567714 331.80557069254235 408.583356207065 346.92265010576205L408.583356207065 346.92265010576205Q388.98969291293736 388.58931545882774 375.59437653083603 388.58931545882774L375.59437653083603 388.58931545882774Q367.19217293897816 388.58931545882774 362.23349540935715 384.62926048725535L362.23349540935715 384.62926048725535Q360.47729711761633 382.87306219551465 360.47729711761633 375.5727869435725Q360.47729711761633 368.27251169163037 361.8547075425111 351.77802185351595Q363.19768270678344 335.28353201540153 363.19768270678344 327.0879399872779Q363.19768270678344 318.92678321977655 360.47729711761633 318.92678321977655L360.47729711761633 318.92678321977655Q357.27481787973613 318.92678321977655 346.4621460443125 329.8427608370673Q335.68390946951115 340.72430319373575 334.9607689964414 345.20088707464356L334.9607689964414 345.20088707464356Q333.44561752905713 353.6375259271239 333.44561752905713 381.63339281310937L333.44561752905713 381.63339281310937Q333.44561752905713 388.58931545882774 329.7266093818414 388.58931545882774L329.7266093818414 388.58931545882774Q324.0447913791506 388.58931545882774 318.9483728070401 386.9708582095765Q313.88638949555195 385.3524009603251 313.88638949555195 382.5287095892909Q313.88638949555195 379.67058295763434 315.3671057023138 358.07967454740935Q316.8478219090756 336.5232013978068 316.8478219090756 327.7077746784805Q316.8478219090756 318.92678321977655 313.98969527741906 318.92678321977655Q311.13156864576246 318.92678321977655 300.250026289094 335.9033667066042Q289.3340486718033 352.8799501934318 288.19768507126514 359.5948260147936Q287.0957567313493 366.275266575533 287.0957567313493 373.95432969432125ZM418.9828049150202 388.58931545882774L418.9828049150202 388.58931545882774Q413.542033736686 388.58931545882774 408.9621440739111 387.211905033933Q404.38225441113605 385.86892986966063 403.3836318530873 384.62926048725535L403.3836318530873 384.62926048725535Q400.90429308827686 381.63339281310937 400.90429308827686 353.740831708991Q400.90429308827686 325.8482706048726 407.10264000030315 278.01769360040294L407.10264000030315 278.01769360040294Q412.3023643542807 238.58932018779112 431.3794987390728 238.58932018779112L431.3794987390728 238.58932018779112Q435.8560826199807 238.58932018779112 437.8533277360781 243.41025667492272Q439.8161375915531 248.26562842267666 439.8161375915531 252.70777704296216L439.8161375915531 252.70777704296216Q439.8161375915531 284.939180985499 420.2224742974255 324.8840833074463L420.2224742974255 324.8840833074463Q419.49933382435574 345.4419338990002 419.49933382435574 360.69675435470936Q419.49933382435574 375.9515748104186 422.21971941352285 375.9515748104186L422.21971941352285 375.9515748104186Q426.4208212094518 375.71052798606195 433.85883750388336 365.4143850599738Q441.29685379831494 355.1182421338857 448.6315643108794 339.00254016261727Q455.93183956282144 322.88683819134894 457.5502968120728 322.88683819134894Q459.1687540613241 322.88683819134894 459.1687540613241 324.8840833074463L459.1687540613241 324.8840833074463Q459.1687540613241 331.80557069254235 451.97178459124916 346.92265010576205L451.97178459124916 346.92265010576205Q432.37812129712154 388.58931545882774 418.9828049150202 388.58931545882774ZM433.6177906795267 254.9460689834161L433.6177906795267 254.9460689834161Q433.6177906795267 247.02595904027137 431.6549808240518 247.02595904027137L431.6549808240518 247.02595904027137Q424.2169645296202 247.02595904027137 420.739003206761 308.76838133617787L420.739003206761 308.76838133617787Q433.6177906795267 274.7807791019003 433.6177906795267 254.9460689834161Z " fill="#000000" transform="matrix(1.0024023230804358,0,0,1.002402323080436,0.001364955280357627,-14.34266385781585)"/><path d="M548.5942570639876 388.5893206007654Q545.6341053041853 388.5893206007654 543.7840104543088 385.8284098247959Q541.9339156044323 383.06749904882645 541.9339156044323 379.8796433075008Q541.9339156044323 376.72025056386565 544.6094373873306 369.83220512278706Q547.2849591702288 362.972622679399 550.1312589392696 357.2515601436271L550.1312589392696 357.2515601436271Q555.681543488899 346.7771769935573 562.6549779230487 334.4811619913014L562.6549779230487 334.4811619913014Q571.0515622417188 317.8872343377941 579.6473875442218 285.2971019822779Q588.2716758444151 252.73543262445213 591.3456795949791 246.07509116489686Q594.419683345543 239.4147497053416 598.5183550129617 239.4147497053416L598.5183550129617 239.4147497053416Q599.941504897482 239.4147497053416 599.941504897482 241.8625675067166Q599.941504897482 244.3103853080916 598.7175959967946 249.23448390853204L598.7175959967946 249.23448390853204Q580.0743325095779 329.35782240702815 564.704313756758 368.2952032475051L564.704313756758 368.2952032475051Q561.4026060246708 376.49254658234236 556.5069704219208 382.5551650903991Q551.5828718214802 388.5893206007654 548.5942570639876 388.5893206007654ZM687.8637047631497 323.8360008550892L687.8637047631497 323.8360008550892Q689.28685464767 321.7866650213798 691.9623764305683 316.66332543710655L691.9623764305683 316.66332543710655Q698.5088658993619 304.99349638403964 699.846626790811 304.99349638403964Q701.1843876822602 304.99349638403964 701.1843876822602 306.6158872523929L701.1843876822602 306.6158872523929Q701.1843876822602 316.66332543710655 690.7384675298807 332.0333441899264L690.7384675298807 332.0333441899264Q671.8675000611408 359.6993779450022 640.5297396040027 359.6993779450022L640.5297396040027 359.6993779450022Q631.7062103199764 359.6993779450022 624.3342939181609 355.6007062775835Q616.9623775163454 351.50203461016497 612.6360018674036 345.15478612520417L612.6360018674036 345.15478612520417Q603.8409355810678 332.2325851737593 603.8409355810678 318.08647532162695L603.8409355810678 318.08647532162695Q603.8409355810678 282.4508022132371 622.3703470775229 260.6196829846949Q640.9282215716684 238.78856375615263 666.3456785092019 238.78856375615263L666.3456785092019 238.78856375615263Q675.9661717285595 238.78856375615263 682.1141792296875 244.42423729885323Q688.2621867308154 250.0599108415539 688.2621867308154 258.65573614405685Q688.2621867308154 267.2800244442502 683.9642740795639 274.6519408460656Q679.6663614283124 282.0238572478811 673.6037429202557 282.0238572478811Q667.5695874098893 282.0238572478811 667.5695874098893 278.75061251348427L667.5695874098893 278.75061251348427Q667.5695874098893 275.0504228137313 671.5544070865463 270.3540281948142Q675.5676897608938 265.6291705782065 675.5676897608938 260.9327759592894L675.5676897608938 260.9327759592894Q675.5676897608938 246.35972114180092 660.0838190173123 246.35972114180092Q644.6284112714212 246.35972114180092 632.1046922876421 267.08078346041736Q619.6094363015534 287.77338278134334 619.6094363015534 309.68989100295687L619.6094363015534 309.68989100295687Q619.6094363015534 324.8606687719438 628.2337246017468 336.64434981577233Q636.8295499042497 348.4280308596009 652.3988096409024 348.4280308596009L652.3988096409024 348.4280308596009Q670.8428321442863 348.4280308596009 687.8637047631497 323.8360008550892ZM756.5164551924116 263.57983474449725L756.5164551924116 263.57983474449725L757.5411231092663 258.25725417639114Q756.7156961762445 247.18514807482273 742.5695863241122 247.18514807482273L742.5695863241122 247.18514807482273Q734.3722429892749 247.18514807482273 728.3380874789086 253.02006260135622Q722.2754689708519 258.88344012558 722.2754689708519 265.3160776036121Q722.2754689708519 271.7771780793345 727.7119015297196 276.58742468901335Q733.1483340885874 281.42613429638254 740.8333434649974 285.2117129892067Q748.5183528414072 288.9972916820308 756.2033622178172 293.40905632404395Q763.8883715942271 297.820820966057 769.3248041530949 304.76579240251635Q774.7612367119626 311.73922683666615 774.7612367119626 320.56275612069237L774.7612367119626 320.56275612069237Q774.7612367119626 338.80753764024337 760.4158858759974 349.2534577926227Q746.0705350400323 359.6993779450022 729.4481443888345 359.6993779450022Q712.8542167353271 359.6993779450022 701.7821106337587 353.6652224346359Q690.7384675298807 347.60260392657915 690.7384675298807 335.30658892432325L690.7384675298807 335.30658892432325Q690.7384675298807 328.7600994555296 695.2356211649651 323.4375188874235Q699.7327748000495 318.08647532162695 708.15782211641 318.08647532162695L708.15782211641 318.08647532162695Q711.4310668508068 318.08647532162695 714.0781256360146 319.9365701715034Q716.7536474189129 321.7866650213798 717.3798333681019 324.8606687719438L717.3798333681019 324.8606687719438Q717.3798333681019 327.93467252250775 713.679643668349 327.93467252250775L713.679643668349 327.93467252250775Q706.7062092341992 327.93467252250775 706.7062092341992 333.88343903980285L706.7062092341992 333.88343903980285Q706.905450218032 340.62916949242936 713.1673097099216 346.17945404205875Q719.4291692018112 351.7012755939977 730.7859052802836 351.7012755939977Q742.1711043564464 351.7012755939977 750.2545957005221 343.9308772245166Q758.3665500422882 336.1320158573451 758.3665500422882 325.05990975577663L758.3665500422882 325.05990975577663Q758.3665500422882 317.68799335396125 752.8162654926588 311.73922683666615Q747.2944439407198 305.79046031937105 739.4955825735482 301.6063996588812Q731.725184204067 297.39387600070097 723.8124708461339 293.09596334944945Q715.9282204858911 288.7980506981979 710.4063989339521 282.6500431970701Q704.8561143843227 276.50203569594214 704.8561143843227 268.7031743287705L704.8561143843227 268.7031743287705Q704.8561143843227 254.9840094419943 716.6397954281513 246.78666610715703Q728.4234764719798 238.58932277231978 743.395013257134 238.58932277231978L743.395013257134 238.58932277231978Q753.4424514418478 238.58932277231978 761.639794776685 242.68799443973842Q769.8371381115222 246.78666610715703 770.0363790953551 255.18325042582714L770.0363790953551 255.18325042582714Q770.0363790953551 260.10734902626757 767.5885612939801 263.3805937606644Q765.1122804949147 266.6538384950612 760.9282198344248 266.6538384950612Q756.7156961762445 266.6538384950612 756.5164551924116 263.57983474449725ZM854.6853342266259 263.57983474449725L854.6853342266259 263.57983474449725L855.7100021434804 258.25725417639114Q854.8845752104587 247.18514807482273 840.7384653583264 247.18514807482273L840.7384653583264 247.18514807482273Q832.541122023489 247.18514807482273 826.5069665131228 253.02006260135622Q820.4443480050661 258.88344012558 820.4443480050661 265.3160776036121Q820.4443480050661 271.7771780793345 825.8807805639339 276.58742468901335Q831.3172131228016 281.42613429638254 839.0022224992116 285.2117129892067Q846.6872318756215 288.9972916820308 854.3722412520314 293.40905632404395Q862.0572506284412 297.820820966057 867.4936831873091 304.76579240251635Q872.9016527484865 311.73922683666615 872.9016527484865 320.56275612069237L872.9016527484865 320.56275612069237Q872.9016527484865 338.80753764024337 858.5563019125212 349.2534577926227Q844.2109510765561 359.6993779450022 827.6170234230486 359.6993779450022Q811.0230957695413 359.6993779450022 799.950989667973 353.6652224346359Q788.8788835664046 347.60260392657915 788.8788835664046 335.30658892432325L788.8788835664046 335.30658892432325Q788.8788835664046 328.7600994555296 793.4045001991793 323.4375188874235Q797.9016538342636 318.08647532162695 806.2982381529338 318.08647532162695L806.2982381529338 318.08647532162695Q809.5999458850209 318.08647532162695 812.2470046702289 319.9365701715034Q814.922526453127 321.7866650213798 815.5202494046256 324.8606687719438L815.5202494046256 324.8606687719438Q815.5202494046256 327.93467252250775 811.8485227025632 327.93467252250775L811.8485227025632 327.93467252250775Q804.8750882684134 327.93467252250775 804.8750882684134 333.88343903980285L804.8750882684134 333.88343903980285Q805.0743292522462 340.62916949242936 811.3361887441357 346.17945404205875Q817.569585238335 351.7012755939977 828.9547843144978 351.7012755939977Q840.3399833906607 351.7012755939977 848.4234747347363 343.9308772245166Q856.506966078812 336.1320158573451 856.506966078812 325.05990975577663L856.506966078812 325.05990975577663Q856.506966078812 317.68799335396125 850.9851445268729 311.73922683666615Q845.4633229749339 305.79046031937105 837.6644616077624 301.6063996588812Q829.8656002405909 297.39387600070097 821.9813498803481 293.09596334944945Q814.0970995201053 288.7980506981979 808.5752779681662 282.6500431970701Q803.0249934185368 276.50203569594214 803.0249934185368 268.7031743287705L803.0249934185368 268.7031743287705Q803.0249934185368 254.9840094419943 814.8086744623655 246.78666610715703Q826.5923555061939 238.58932277231978 841.5638922913482 238.58932277231978L841.5638922913482 238.58932277231978Q851.6113304760619 238.58932277231978 859.8086738108992 242.68799443973842Q868.0060171457363 246.78666610715703 868.2052581295692 255.18325042582714L868.2052581295692 255.18325042582714Q868.2052581295692 260.10734902626757 865.7289773305039 263.3805937606644Q863.2811595291288 266.6538384950612 859.0686358709486 266.6538384950612Q854.8845752104587 266.6538384950612 854.6853342266259 263.57983474449725Z " fill="#fcedda" transform="matrix(1.0024023230804358,0,0,1.002402323080436,0.001364955280357627,-14.34266385781585)"/></g></svg>